# xmcd
#
# Track frame offsets: 
#        150
#        24193
#        47896
#        68830
#        89632
#        109225
#
# Disc length: 1694 seconds
#
# Revision: 0
# Processed by: cddbd v1.5.2PL0 Copyright (c) Steve Scherf et al.
# Submitted via: ExactAudioCopyFreeDBPlugin 1.0
#
DISCID=4b069c06
DTITLE=中国人 - 中国风
DYEAR=2013
DGENRE=Vocal
TTITLE0=孟庭苇 - 谁的眼泪在飞
TTITLE1=孟庭苇 - 化身为海
TTITLE2=孟庭苇 - 昨天今天下雨天
TTITLE3=刘德华 - 天意人心
TTITLE4=孟庭苇 - 风中有朵雨做的云
TTITLE5=孟庭苇 - 不下雨就出太阳吧
EXTD=
EXTT0=
EXTT1=
EXTT2=
EXTT3=
EXTT4=
EXTT5=
PLAYORDER=
